<svg width="72" height="68" viewBox="0 0 72 68" fill="none" xmlns="http://www.w3.org/2000/svg">
<g filter="url(#filter0_f_567_1285)">
<path d="M56.6343 19.8048C53.0788 14.6262 46.1262 12 35.9732 12H35.9567C25.8191 12.0028 18.8836 14.6301 15.3435 19.8088C12.3797 24.1436 12 29.6703 12 34C12 38.3297 12.3797 43.8558 15.3435 48.1906C18.8836 53.3687 25.8191 55.996 35.9572 56H35.9772C46.1296 56 53.0793 53.3744 56.6349 48.1957C59.6169 43.8513 60 38.3275 60 34.0006C60 29.6737 59.6181 24.1499 56.6354 19.806H56.6349L56.6343 19.8048Z" fill="url(#paint0_linear_567_1285)"/>
</g>
<path d="M55.7755 20.4505C52.368 15.5071 45.705 13 35.9749 13H35.9585C26.2431 13.0028 19.5964 15.5105 16.2042 20.4538C13.364 24.5918 13 29.8671 13 34C13 38.1329 13.364 43.4077 16.2042 47.5456C19.597 52.4884 26.2436 54.9966 35.959 55H35.9777C45.7072 55 52.3674 52.4934 55.7748 47.5501C58.6331 43.4032 59 38.1301 59 34C59 29.8699 58.6337 24.5974 55.7755 20.4505Z" fill="#09090A"/>
<path d="M36.6544 42.1006C36.4522 41.9218 36.2412 41.7423 36.0397 41.5436C35.8786 41.6925 35.7276 41.8321 35.5678 41.971C33.5733 43.6904 31.5173 44.4062 30.2986 43.7103C29.1197 43.0444 28.7483 41.077 29.2201 38.6019C29.2705 38.3336 29.3309 38.0654 29.4014 37.7971C29.1898 37.7348 28.9882 37.6775 28.7867 37.6102C26.2771 36.7536 24.625 35.3625 24.625 33.9708C24.625 32.6295 26.1666 31.3275 28.5744 30.4927C28.844 30.403 29.1285 30.3139 29.421 30.2342C29.3536 29.9756 29.3003 29.7271 29.2498 29.4866C28.7456 26.9742 29.0981 24.9669 30.2872 24.291C31.5261 23.5752 33.582 24.3409 35.6467 26.1394C35.7674 26.2484 35.8887 26.368 36.0195 26.487C36.2109 26.3082 36.3922 26.1294 36.5836 25.9706C38.5384 24.2885 40.4825 23.5852 41.6715 24.2611C42.9105 24.9564 43.2738 27.1031 42.7197 29.757C42.6894 29.9264 42.6523 30.0853 42.6091 30.2554C42.8612 30.3251 43.1127 30.4043 43.3446 30.484C45.8029 31.3188 47.395 32.6208 47.3748 33.9919C47.3748 35.393 45.6721 36.7748 43.0608 37.6295C42.9199 37.6694 42.779 37.7192 42.6375 37.7584C42.6981 37.9572 42.7379 38.1559 42.7783 38.3546C43.3021 40.9287 42.899 43.0356 41.6803 43.7315C41.3602 43.9096 40.9921 44.0003 40.6186 43.9931C39.5017 43.9913 38.0835 43.3116 36.6544 42.1006ZM38.6294 38.4531C38.0507 39.2851 37.4146 40.0819 36.7252 40.8384C36.9166 41.0253 37.1081 41.1966 37.2995 41.3555C38.9618 42.7665 40.4932 43.2935 41.2091 42.8861C41.4277 42.7121 41.6063 42.4993 41.7344 42.2604C41.8625 42.0215 41.9373 41.7612 41.9546 41.495C42.1001 40.5088 42.059 39.5067 41.8333 38.5334C41.803 38.3546 41.7659 38.1758 41.7126 37.9871C40.6975 38.2067 39.6674 38.3623 38.6294 38.4531ZM30.1861 38.7714C29.7735 40.8895 30.0755 42.4681 30.7927 42.8762C31.0468 42.9743 31.3212 43.0196 31.5963 43.0088C31.8714 42.9981 32.1407 42.9315 32.3849 42.8139C33.3349 42.4448 34.2001 41.9118 34.9342 41.2433C35.0852 41.1237 35.2261 40.9848 35.3777 40.8459C34.6731 40.0891 34.0203 39.2924 33.4229 38.4605C32.3889 38.3807 31.3621 38.235 30.3499 38.0244C30.2872 38.2842 30.2366 38.5322 30.1861 38.7714ZM36.0505 40.1625C36.494 39.6753 36.9369 39.1389 37.3804 38.5428C36.9369 38.5627 36.4738 38.5727 36.01 38.5727C35.5463 38.5727 35.1135 38.5627 34.6801 38.5428C35.1331 39.1284 35.5874 39.6753 36.0505 40.1625ZM33.9339 30.4628C33.551 31.0092 33.1783 31.5842 32.8257 32.1922C32.4732 32.7884 32.1516 33.3945 31.8584 33.9988C32.1611 34.595 32.4833 35.2011 32.8358 35.8179C33.1884 36.4141 33.5611 37.0015 33.944 37.5566C34.6086 37.5965 35.3043 37.6189 36.0093 37.6189C36.7144 37.6189 37.4195 37.599 38.0949 37.5497C38.4576 37.0034 38.8303 36.4166 39.1835 35.8104C39.5367 35.2043 39.8684 34.5881 40.1609 33.9919C39.8684 33.4057 39.5361 32.7996 39.1835 32.1928C38.831 31.586 38.4582 31.0092 38.0855 30.4634C37.4114 30.4136 36.7151 30.3837 36.01 30.3837C35.3049 30.3837 34.6093 30.413 33.9339 30.4628ZM30.6094 37.1112C31.3007 37.2571 32.0003 37.3667 32.7051 37.4395C32.4631 37.062 32.2218 36.6838 31.9899 36.2864C31.7681 35.8989 31.5463 35.5114 31.3448 35.1239C31.0529 35.7992 30.8109 36.4664 30.6094 37.1112ZM40.0295 36.2764C39.7976 36.6738 39.5657 37.0514 39.3345 37.4195C40.0498 37.3367 40.7596 37.2173 41.4605 37.062C41.2417 36.3911 40.9861 35.7309 40.6948 35.084C40.4831 35.4815 40.2614 35.8789 40.0295 36.2764ZM28.8865 31.4066C26.8312 32.1224 25.5923 33.1646 25.5923 33.9807C25.6315 34.2433 25.7264 34.4961 25.8715 34.7247C26.0167 34.9532 26.2093 35.153 26.4382 35.3127C27.2246 35.9238 28.1264 36.3954 29.0981 36.7037C29.2794 36.766 29.4709 36.8134 29.6623 36.8732C29.9718 35.8956 30.3452 34.9364 30.7806 34.0007C30.3444 33.081 29.9742 32.1358 29.6724 31.1711C29.4005 31.2384 29.1386 31.3169 28.8865 31.4066ZM41.2489 33.9807C41.696 34.9045 42.0787 35.8538 42.3948 36.8227C42.5262 36.7829 42.657 36.743 42.7777 36.7031C45.0243 35.968 46.4176 34.8448 46.425 33.9701C46.425 33.1553 45.1356 32.1012 43.0298 31.3861C42.8181 31.3169 42.5869 31.2471 42.3557 31.1774C42.0505 32.1323 41.6808 33.0686 41.2489 33.9807ZM40.02 31.695C40.2519 32.0925 40.4737 32.4806 40.6746 32.8681C40.9545 32.2348 41.1966 31.5878 41.3999 30.93C40.7155 30.7764 40.0227 30.657 39.3244 30.5725C39.5664 30.9394 39.7983 31.3076 40.02 31.695ZM30.6195 30.9219C30.8217 31.558 31.063 32.204 31.3448 32.8694C31.547 32.4819 31.7681 32.0944 31.9899 31.7069C32.2116 31.3194 32.4428 30.9419 32.6848 30.5737C31.9595 30.6615 31.2747 30.7805 30.6195 30.9219ZM37.2186 26.6982C37.0474 26.8471 36.8762 27.0059 36.7043 27.1654C37.404 27.9127 38.047 28.7036 38.6288 29.5327C39.6541 29.6242 40.671 29.7837 41.6715 30.0099C41.712 29.861 41.7389 29.7115 41.7726 29.5626C42.2445 27.2769 41.954 25.5276 41.1882 25.0909C41.0201 25.0037 40.8295 24.9606 40.6368 24.9663C39.8138 24.9626 38.5506 25.555 37.2186 26.6963V26.6982ZM30.7705 25.1158C30.0553 25.5233 29.7729 27.153 30.1962 29.2997C30.2467 29.5284 30.2973 29.7564 30.3573 29.995C31.3592 29.777 32.3757 29.6209 33.4 29.5277C33.9839 28.6976 34.6304 27.9066 35.3346 27.1604C35.2241 27.0508 35.1027 26.9517 34.9922 26.8521C33.5901 25.6267 32.242 24.98 31.3616 24.98C31.1547 24.9735 30.95 25.0205 30.7705 25.1158ZM37.3595 29.4486C36.944 28.893 36.4957 28.3589 36.0168 27.8488C35.5638 28.3354 35.1101 28.8724 34.6686 29.4486C35.1122 29.4287 35.555 29.4187 36.0087 29.4187C36.4623 29.4187 36.916 29.4268 37.3595 29.4486ZM33.9946 34.0206C33.9851 33.7652 34.0303 33.5105 34.1275 33.2713C34.2247 33.032 34.3721 32.8129 34.5612 32.6263C34.7502 32.4398 34.9772 32.2896 35.2292 32.1843C35.4812 32.079 35.7532 32.0207 36.0296 32.0128C36.5873 32.0303 37.1147 32.2515 37.4961 32.6279C37.8776 33.0043 38.082 33.5051 38.0646 34.0206C38.0826 34.5365 37.8783 35.0379 37.4966 35.4147C37.1149 35.7915 36.5871 36.0129 36.0289 36.0303C35.7523 36.0224 35.4802 35.964 35.2281 35.8586C34.9761 35.7532 34.749 35.6028 34.56 35.416C34.371 35.2293 34.2237 35.0099 34.1267 34.7704C34.0296 34.531 33.9847 34.2762 33.9946 34.0206Z" fill="#6278F2"/>
<defs>
<filter id="filter0_f_567_1285" x="0.598575" y="0.598575" width="70.8029" height="66.8029" filterUnits="userSpaceOnUse" color-interpolation-filters="sRGB">
<feFlood flood-opacity="0" result="BackgroundImageFix"/>
<feBlend mode="normal" in="SourceGraphic" in2="BackgroundImageFix" result="shape"/>
<feGaussianBlur stdDeviation="5.70071" result="effect1_foregroundBlur_567_1285"/>
</filter>
<linearGradient id="paint0_linear_567_1285" x1="11.9994" y1="33.9994" x2="59.9994" y2="33.9994" gradientUnits="userSpaceOnUse">
<stop stop-color="#667DFF"/>
<stop offset="1" stop-color="#667DFF" stop-opacity="0.25"/>
</linearGradient>
</defs>
</svg>
